<svg
  xmlns="http://www.w3.org/2000/svg"
  viewBox="0 0 24 24"
  width="44"
  height="44"
  color="#000000"
  fill="none"
>
  <path
    d="M9.5 22C12.8137 22 15.5 19.3137 15.5 16V8.24537C16.5006 9.04749 17.6981 9.61412 19.0085 9.86122C19.3589 9.92728 19.5341 9.96032 19.7502 9.90446C20.007 9.83809 20.2923 9.6016 20.4051 9.36157C20.5 9.15952 20.5 8.93968 20.5 8.5C20.5 8.04137 20.5 7.81205 20.4499 7.65983C20.3671 7.4079 20.2952 7.31049 20.079 7.15694C19.9483 7.06416 19.6395 6.96876 19.022 6.77796C17.4492 6.29199 16.208 5.05079 15.722 3.47798C15.5312 2.86045 15.4358 2.55169 15.3431 2.42104C15.1895 2.20479 15.0921 2.13294 14.8402 2.05007C14.6879 2 14.4586 2 14 2C13.5341 2 13.3011 2 13.1173 2.07612C12.8723 2.17761 12.6776 2.37229 12.5761 2.61732C12.5 2.80109 12.5 3.03406 12.5 3.5V16C12.5 17.6569 11.1569 19 9.5 19C7.84315 19 6.5 17.6569 6.5 16C6.5 14.8644 7.13101 13.8761 8.06154 13.3667C8.75264 12.9884 9.0982 12.7992 9.19494 12.7057C9.38565 12.5214 9.39434 12.5068 9.46444 12.251C9.5 12.1212 9.5 11.9141 9.5 11.5C9.5 11.0747 9.5 10.8621 9.39825 10.6541C9.28169 10.4159 8.96391 10.1689 8.70429 10.1147C8.47765 10.0674 8.32349 10.1067 8.01518 10.1851C5.41964 10.8459 3.5 13.1988 3.5 16C3.5 19.3137 6.18629 22 9.5 22Z"
    stroke="currentColor"
    stroke-width="1.5"
    stroke-linecap="round"
    stroke-linejoin="round"
  ></path>
</svg>